<svg width="30" height="30" viewBox="0 0 30 30" fill="none" xmlns="http://www.w3.org/2000/svg">
<g clip-path="url(#clip0)">
<path d="M8.81171 18.5296H3.63218C3.87853 17.6024 4.50906 16.8145 5.39735 16.3702L7.11806 15.5099C8.16271 14.9876 8.81165 13.9376 8.81165 12.7697C8.81165 11.0804 7.4373 9.70605 5.748 9.70605H4.81653C3.12724 9.70605 1.75288 11.0804 1.75288 12.7697V13.2355H3.51759V12.7697C3.51759 12.0535 4.1003 11.4708 4.81653 11.4708H5.74806C6.4643 11.4708 7.047 12.0535 7.047 12.7697C7.047 13.2649 6.77188 13.7101 6.32894 13.9315L4.60818 14.7919C2.84694 15.6725 1.75288 17.4428 1.75288 19.4119V20.2943H8.81171V18.5296Z" fill="#FF9900"/>
<path d="M14.9882 14.1178H13.7721C12.9831 14.1178 12.3412 13.4759 12.3412 12.6868V9.70605H10.5764V12.6868C10.5764 14.4489 12.01 15.8825 13.7721 15.8825H14.9882V20.2943H16.7529V9.70605H14.9882V14.1178Z" fill="#FF9900"/>
<path d="M24.948 20.2634L28.2471 9.70605H21.4588V11.4708H25.8468L23.2636 19.737L24.948 20.2634Z" fill="#FF9900"/>
<path d="M18.5176 14.1172H21.1646V15.8819H18.5176V14.1172Z" fill="#FF9900"/>
<path d="M14.1058 0H15.8705V3.52941H14.1058V0Z" fill="#FF9900"/>
<path d="M10.1024 1.93359L11.8071 1.47654L12.4165 3.74953L10.7118 4.20659L10.1024 1.93359Z" fill="#FF9900"/>
<path d="M6.42976 3.70605L7.958 2.8237L9.1345 4.8614L7.60626 5.74375L6.42976 3.70605Z" fill="#FF9900"/>
<path d="M3.34076 6.36621L4.58841 5.11856L6.25194 6.78209L5.00429 8.02974L3.34076 6.36621Z" fill="#FF9900"/>
<path d="M17.5652 3.75098L18.1746 1.47798L19.8793 1.93504L19.2699 4.20804L17.5652 3.75098Z" fill="#FF9900"/>
<path d="M20.8416 4.8623L22.0181 2.82461L23.5463 3.70696L22.3698 5.74466L20.8416 4.8623Z" fill="#FF9900"/>
<path d="M23.7199 6.78418L25.3834 5.12065L26.6311 6.3683L24.9675 8.03183L23.7199 6.78418Z" fill="#FF9900"/>
<path d="M14.1058 26.4707H15.8705V30.0001H14.1058V26.4707Z" fill="#FF9900"/>
<path d="M10.1052 28.0684L10.7146 25.7954L12.4193 26.2524L11.8099 28.5254L10.1052 28.0684Z" fill="#FF9900"/>
<path d="M6.42937 26.2939L7.60587 24.2562L9.13411 25.1386L7.9576 27.1763L6.42937 26.2939Z" fill="#FF9900"/>
<path d="M3.33896 23.6318L5.00249 21.9683L6.25014 23.216L4.58661 24.8795L3.33896 23.6318Z" fill="#FF9900"/>
<path d="M17.5677 26.2461L19.2724 25.789L19.8819 28.062L18.1771 28.5191L17.5677 26.2461Z" fill="#FF9900"/>
<path d="M20.8412 25.1377L22.3694 24.2553L23.5459 26.293L22.0177 27.1754L20.8412 25.1377Z" fill="#FF9900"/>
<path d="M23.718 23.2178L24.9656 21.9701L26.6292 23.6337L25.3815 24.8813L23.718 23.2178Z" fill="#FF9900"/>
</g>
<defs>
<clipPath id="clip0">
<rect width="30" height="30" fill="white"/>
</clipPath>
</defs>
</svg>
